<mxfile host="Electron" modified="2024-02-22T14:08:05.822Z" agent="Mozilla/5.0 (Windows NT 10.0; Win64; x64) AppleWebKit/537.36 (KHTML, like Gecko) draw.io/23.1.5 Chrome/120.0.6099.109 Electron/28.1.0 Safari/537.36" etag="j4Dxkq7n3yc2KdK1S1I7" version="23.1.5" type="device">
  <diagram name="Seite-1" id="W95HgTGrd1SGFvflGaMp">
    <mxGraphModel dx="1687" dy="993" grid="0" gridSize="10" guides="1" tooltips="1" connect="1" arrows="1" fold="1" page="1" pageScale="1" pageWidth="1169" pageHeight="827" math="0" shadow="0">
      <root>
        <mxCell id="0" />
        <mxCell id="1" parent="0" />
        <mxCell id="zCnPTet6qp74GJNRUDnC-1" value="Margin Box" style="rounded=0;whiteSpace=wrap;html=1;verticalAlign=top;" vertex="1" parent="1">
          <mxGeometry x="343" y="333" width="488" height="306" as="geometry" />
        </mxCell>
        <mxCell id="zCnPTet6qp74GJNRUDnC-2" value="Border Box" style="rounded=0;whiteSpace=wrap;html=1;verticalAlign=top;fillColor=#fff2cc;gradientColor=#ffd966;strokeColor=#d6b656;" vertex="1" parent="1">
          <mxGeometry x="369" y="365" width="442" height="248" as="geometry" />
        </mxCell>
        <mxCell id="zCnPTet6qp74GJNRUDnC-3" value="Padding Box" style="rounded=0;whiteSpace=wrap;html=1;labelPosition=center;verticalLabelPosition=middle;align=center;verticalAlign=top;fillColor=#d5e8d4;gradientColor=#97d077;strokeColor=#82b366;" vertex="1" parent="1">
          <mxGeometry x="390" y="402" width="377" height="162" as="geometry" />
        </mxCell>
        <mxCell id="zCnPTet6qp74GJNRUDnC-4" value="Scrollbar Gutter" style="rounded=0;whiteSpace=wrap;html=1;direction=south;horizontal=0;" vertex="1" parent="1">
          <mxGeometry x="770" y="402" width="26" height="162" as="geometry" />
        </mxCell>
        <mxCell id="zCnPTet6qp74GJNRUDnC-5" value="Scrollbar Gutter" style="rounded=0;whiteSpace=wrap;html=1;direction=west;horizontal=1;" vertex="1" parent="1">
          <mxGeometry x="390" y="569" width="406" height="26" as="geometry" />
        </mxCell>
        <mxCell id="zCnPTet6qp74GJNRUDnC-6" value="Content Box" style="rounded=0;whiteSpace=wrap;html=1;fillColor=#b1ddf0;strokeColor=#10739e;" vertex="1" parent="1">
          <mxGeometry x="414" y="435" width="341" height="109" as="geometry" />
        </mxCell>
        <mxCell id="zCnPTet6qp74GJNRUDnC-7" style="edgeStyle=orthogonalEdgeStyle;rounded=0;orthogonalLoop=1;jettySize=auto;html=1;entryX=0.5;entryY=0;entryDx=0;entryDy=0;curved=1;" edge="1" parent="1" source="zCnPTet6qp74GJNRUDnC-8" target="zCnPTet6qp74GJNRUDnC-1">
          <mxGeometry relative="1" as="geometry" />
        </mxCell>
        <mxCell id="zCnPTet6qp74GJNRUDnC-8" value="Margin definiert Außenabstand zu anderen Elementen&lt;br&gt;(wird immer transparent dargestellt)" style="text;html=1;align=center;verticalAlign=middle;whiteSpace=wrap;rounded=0;" vertex="1" parent="1">
          <mxGeometry x="283" y="228" width="322" height="30" as="geometry" />
        </mxCell>
        <mxCell id="zCnPTet6qp74GJNRUDnC-9" style="edgeStyle=orthogonalEdgeStyle;rounded=0;orthogonalLoop=1;jettySize=auto;html=1;entryX=0.75;entryY=0;entryDx=0;entryDy=0;strokeColor=default;align=center;verticalAlign=middle;fontFamily=Helvetica;fontSize=11;fontColor=default;labelBackgroundColor=default;endArrow=classic;curved=1;" edge="1" parent="1" source="zCnPTet6qp74GJNRUDnC-10" target="zCnPTet6qp74GJNRUDnC-2">
          <mxGeometry relative="1" as="geometry" />
        </mxCell>
        <mxCell id="zCnPTet6qp74GJNRUDnC-10" value="Border ist der Rahmen um das Element." style="text;html=1;align=left;verticalAlign=middle;whiteSpace=wrap;rounded=0;" vertex="1" parent="1">
          <mxGeometry x="680" y="232" width="233" height="30" as="geometry" />
        </mxCell>
        <mxCell id="zCnPTet6qp74GJNRUDnC-11" style="edgeStyle=orthogonalEdgeStyle;rounded=0;orthogonalLoop=1;jettySize=auto;html=1;entryX=0.75;entryY=0;entryDx=0;entryDy=0;strokeColor=default;align=center;verticalAlign=middle;fontFamily=Helvetica;fontSize=11;fontColor=default;labelBackgroundColor=default;endArrow=classic;curved=1;" edge="1" parent="1" source="zCnPTet6qp74GJNRUDnC-12" target="zCnPTet6qp74GJNRUDnC-3">
          <mxGeometry relative="1" as="geometry" />
        </mxCell>
        <mxCell id="zCnPTet6qp74GJNRUDnC-12" value="Padding definiert Innenabstand zwischen Rahmen und Inhalt." style="text;html=1;align=left;verticalAlign=middle;whiteSpace=wrap;rounded=0;" vertex="1" parent="1">
          <mxGeometry x="884" y="351" width="233" height="30" as="geometry" />
        </mxCell>
        <mxCell id="zCnPTet6qp74GJNRUDnC-13" style="edgeStyle=orthogonalEdgeStyle;rounded=0;orthogonalLoop=1;jettySize=auto;html=1;entryX=0;entryY=0.5;entryDx=0;entryDy=0;strokeColor=default;align=center;verticalAlign=middle;fontFamily=Helvetica;fontSize=11;fontColor=default;labelBackgroundColor=default;endArrow=classic;curved=1;" edge="1" parent="1" source="zCnPTet6qp74GJNRUDnC-14" target="zCnPTet6qp74GJNRUDnC-6">
          <mxGeometry relative="1" as="geometry" />
        </mxCell>
        <mxCell id="zCnPTet6qp74GJNRUDnC-14" value="Content Box zeigt Inhalt des Elements an." style="text;html=1;align=left;verticalAlign=middle;whiteSpace=wrap;rounded=0;" vertex="1" parent="1">
          <mxGeometry x="62" y="418" width="233" height="30" as="geometry" />
        </mxCell>
        <mxCell id="zCnPTet6qp74GJNRUDnC-15" style="edgeStyle=orthogonalEdgeStyle;rounded=0;orthogonalLoop=1;jettySize=auto;html=1;strokeColor=default;align=center;verticalAlign=middle;fontFamily=Helvetica;fontSize=11;fontColor=default;labelBackgroundColor=default;endArrow=classic;curved=1;" edge="1" parent="1" source="zCnPTet6qp74GJNRUDnC-16" target="zCnPTet6qp74GJNRUDnC-5">
          <mxGeometry relative="1" as="geometry" />
        </mxCell>
        <mxCell id="zCnPTet6qp74GJNRUDnC-16" value="Scrollbar Gutter ist der Abstand zwischen Außenkante PaddingBox und Innenkante Borderbox. Wird aber nur bei Bedarf eingefügt." style="text;html=1;align=left;verticalAlign=middle;whiteSpace=wrap;rounded=0;" vertex="1" parent="1">
          <mxGeometry x="441" y="660" width="363" height="49" as="geometry" />
        </mxCell>
        <mxCell id="zCnPTet6qp74GJNRUDnC-17" value="&lt;b style=&quot;font-size: 14px;&quot;&gt;Standardmäßig bezieht sich das CSS width property auf die Breite der Content-Box&lt;/b&gt;" style="text;html=1;align=left;verticalAlign=middle;whiteSpace=wrap;rounded=0;fontFamily=Verdana;fontSize=14;fontColor=default;labelBackgroundColor=default;" vertex="1" parent="1">
          <mxGeometry x="104" y="46" width="539" height="38" as="geometry" />
        </mxCell>
        <mxCell id="zCnPTet6qp74GJNRUDnC-18" value="&lt;b style=&quot;font-size: 14px;&quot;&gt;Wir können die CSS Eigenschaft box-sizing auf border-box setzen. Dann bezieht sich das CSS width Property auf die Breite der Border-Box.&lt;/b&gt;" style="text;html=1;align=left;verticalAlign=middle;whiteSpace=wrap;rounded=0;fontFamily=Verdana;fontSize=14;fontColor=default;labelBackgroundColor=default;" vertex="1" parent="1">
          <mxGeometry x="104" y="84" width="539" height="68" as="geometry" />
        </mxCell>
      </root>
    </mxGraphModel>
  </diagram>
</mxfile>
